<?xml version="1.0" encoding="UTF-8" standalone="no"?>
<!DOCTYPE svg PUBLIC "-//W3C//DTD SVG 1.1//EN" "http://www.w3.org/Graphics/SVG/1.1/DTD/svg11.dtd">
<svg width="100%" height="100%" viewBox="0 0 1917 1220" version="1.1" xmlns="http://www.w3.org/2000/svg" xmlns:xlink="http://www.w3.org/1999/xlink" xml:space="preserve" xmlns:serif="http://www.serif.com/" style="fill-rule:evenodd;clip-rule:evenodd;stroke-linecap:round;stroke-linejoin:round;stroke-miterlimit:1.5;">
    <g transform="matrix(1,0,0,1,-654,0)">
        <g transform="matrix(1,0,0,3.40339,654,0)">
            <g transform="matrix(1,0,0,0.293825,-654,0)">
                <rect x="654" y="0" width="1916.28" height="1219.39" style="fill:none;"/>
                <clipPath id="_clip1">
                    <rect x="654" y="0" width="1916.28" height="1219.39"/>
                </clipPath>
                <g clip-path="url(#_clip1)">
                    <g transform="matrix(1,0,0,1,1270.95,-4.59899)">
                        <path d="M1952.65,678.189L1613.71,403.981L1558.26,557.101L1202.52,284.711L1141.37,429.016L741.604,96.419L682,184.456L312.047,-47.386" style="fill:none;stroke:rgb(204,226,255);stroke-width:26px;"/>
                    </g>
                    <g transform="matrix(1,-4.72315e-17,8.32667e-17,1,101.575,574.882)">
                        <path d="M1952.65,678.189L1613.71,403.981L1558.26,557.101L1202.52,284.711L1141.37,429.016L741.604,96.419L682,184.456L312.047,-47.386" style="fill:none;stroke:rgb(234,204,255);stroke-width:26px;"/>
                    </g>
                    <g transform="matrix(1,-4.72315e-17,8.32667e-17,1,1674.98,-52.2126)">
                        <path d="M1952.65,678.189L1613.71,403.981L1558.26,557.101L1202.52,284.711L1141.37,429.016L741.604,96.419L682,184.456L312.047,-47.386" style="fill:none;stroke:rgb(255,218,90);stroke-width:26px;"/>
                    </g>
                </g>
            </g>
        </g>
    </g>
</svg>
